<svg xmlns="http://www.w3.org/2000/svg" width="28" height="29" viewBox="0 0 28 29">
  <path fill="#3B5998" fill-rule="evenodd" d="M54.2857409,306.857113 C57.12503,306.857113 59.4286041,309.160687 59.4286041,311.999976 L59.4286041,329.142854 C59.4286041,331.982143 57.12503,334.285717 54.2857409,334.285717 L50.928594,334.285717 L50.928594,323.660704 L54.4821697,323.660704 L55.0178846,319.517842 L50.928594,319.517842 L50.928594,316.874982 C50.928594,315.678552 51.2500229,314.87498 52.9821679,314.87498 L55.1607419,314.857122 L55.1607419,311.160689 C54.7857414,311.107118 53.4821685,310.999975 51.9821667,310.999975 C48.8214486,310.999975 46.6428746,312.928549 46.6428746,316.464267 L46.6428746,319.517842 L43.0714418,319.517842 L43.0714418,323.660704 L46.6428746,323.660704 L46.6428746,334.285717 L37.1428633,334.285717 C34.3035742,334.285717 32,331.982143 32,329.142854 L32,311.999976 C32,309.160687 34.3035742,306.857113 37.1428633,306.857113 L54.2857409,306.857113 Z" transform="translate(-32 -306)"/>
</svg>
