<svg xmlns="http://www.w3.org/2000/svg" width="26" height="21" viewBox="0 0 26 21">
  <path fill="#D0D0D0" fill-rule="evenodd" d="M537,323.27 L547.02,317 L526.98,317 L537,323.27 Z M547.02,332 L547.02,319.52 L537,325.73 L526.98,319.52 L526.98,332 L547.02,332 Z M547.02,314.48 C547.700003,314.48 548.279998,314.729998 548.76,315.23 C549.240002,315.730003 549.48,316.319997 549.48,317 L549.48,332 C549.48,332.680003 549.240002,333.269997 548.76,333.77 C548.279998,334.270002 547.700003,334.52 547.02,334.52 L526.98,334.52 C526.299997,334.52 525.720002,334.270002 525.24,333.77 C524.759998,333.269997 524.52,332.680003 524.52,332 L524.52,317 C524.52,316.319997 524.759998,315.730003 525.24,315.23 C525.720002,314.729998 526.299997,314.48 526.98,314.48 L547.02,314.48 Z" transform="translate(-524 -314)"/>
</svg>
