<svg xmlns="http://www.w3.org/2000/svg" width="11" height="16" viewBox="0 0 11 16">
  <path fill="#333" fill-rule="evenodd" d="M64.2857265,1741.57142 L64.2857265,1742.71428 C64.2857265,1745.35714 62.2857242,1747.53571 59.7142925,1747.82143 L59.7142925,1749 L62.0000095,1749 C62.3125099,1749 62.5714388,1749.25893 62.5714388,1749.57143 C62.5714388,1749.88393 62.3125099,1750.14286 62.0000095,1750.14286 L56.285717,1750.14286 C55.9732166,1750.14286 55.7142878,1749.88393 55.7142878,1749.57143 C55.7142878,1749.25893 55.9732166,1749 56.285717,1749 L58.571434,1749 L58.571434,1747.82143 C56.0000024,1747.53571 54,1745.35714 54,1742.71428 L54,1741.57142 C54,1741.25892 54.2589289,1740.99999 54.5714293,1740.99999 C54.8839296,1740.99999 55.1428585,1741.25892 55.1428585,1741.57142 L55.1428585,1742.71428 C55.1428585,1744.91964 56.9375035,1746.71428 59.1428633,1746.71428 C61.348223,1746.71428 63.142868,1744.91964 63.142868,1742.71428 L63.142868,1741.57142 C63.142868,1741.25892 63.4017969,1740.99999 63.7142973,1740.99999 C64.0267977,1740.99999 64.2857265,1741.25892 64.2857265,1741.57142 Z M62.0000095,1738.14284 L62.0000095,1742.71428 C62.0000095,1744.28571 60.7142937,1745.57142 59.1428633,1745.57142 C57.5714328,1745.57142 56.285717,1744.28571 56.285717,1742.71428 L56.285717,1738.14284 C56.285717,1736.57141 57.5714328,1735.2857 59.1428633,1735.2857 C60.7142937,1735.2857 62.0000095,1736.57141 62.0000095,1738.14284 Z" transform="translate(-54 -1735)"/>
</svg>
