<?xml version="1.0" encoding="UTF-8"?>
<svg width="46px" height="74px" viewBox="0 0 46 74" version="1.1" xmlns="http://www.w3.org/2000/svg" xmlns:xlink="http://www.w3.org/1999/xlink">
    <!-- Generator: Sketch 43 (38999) - http://www.bohemiancoding.com/sketch -->
    <title>microphone</title>
    <desc>Created with Sketch.</desc>
    <defs></defs>
    <g id="Page-1" stroke="none" stroke-width="1" fill="none" fill-rule="evenodd" fill-opacity="0.8">
        <g id="contac-us-copy-5" transform="translate(-217.000000, -450.000000)" fill-rule="nonzero" fill="#000000">
            <g id="error" transform="translate(150.000000, 399.000000)">
                <g id="microphone" transform="translate(67.000000, 51.000000)">
                    <path d="M44.585946,36 C43.1467175,36 43.1719209,36.9748013 43.1719209,38.4372833 C43.1719209,47.6984554 33.5531475,56.4925722 23,56.4925722 C12.4468525,56.4925722 2.82807912,47.6984554 2.82807912,38.4372833 C2.82807912,36.9750814 2.85328245,36 1.41405399,36 C-0.0251744746,36 2.88585244e-05,36.9748013 2.88585244e-05,38.4372833 C2.88585244e-05,49.8771923 9.33475276,58.060584 21.5856992,59.1572354 L21.5856992,71.1157115 L13.4058787,71.1157115 C11.9669259,71.1157115 11.0073483,71.0953663 11.0073483,72.5578483 C11.0073483,74.0203303 11.9666502,73.9999851 13.4058787,73.9999851 L32.5932943,73.9999851 C34.0322471,73.9999851 34.9918247,74.0203303 34.9918247,72.5578483 C34.9918247,71.0953663 34.0325228,71.1157115 32.5932943,71.1157115 L24.4143008,71.1157115 L24.4143008,59.1477115 C36.6652472,58.0020399 45.9999711,49.4189236 45.9999711,38.4372833 C45.9999711,36.9750814 46.0251745,36 44.585946,36 Z" id="Shape"></path>
                    <path d="M34,34.989558 L34,11.010442 C34,4.29620135 29.7110307,0 23,0 C16.2889693,0 12,4.29620135 12,11.010442 L12,34.989558 C12,41.7037987 16.2892448,46 23,46 C29.7110307,46 34,41.2239738 34,34.989558 Z M15.8099248,11.010442 C15.8099248,7.17377243 19.1654402,3.8166521 23.0002755,3.8166521 C26.8351108,3.8166521 30.1906261,6.69422318 30.1906261,11.010442 L30.1906261,34.989558 C30.1906261,38.8262276 26.8351108,42.1833479 23.0002755,42.1833479 C19.1654402,42.1833479 15.8099248,38.8262276 15.8099248,34.989558 L15.8099248,11.010442 Z" id="Shape"></path>
                </g>
            </g>
        </g>
    </g>
</svg>