<?xml version="1.0" encoding="UTF-8"?>
<svg width="31px" height="40px" viewBox="0 0 31 40" version="1.1" xmlns="http://www.w3.org/2000/svg" xmlns:xlink="http://www.w3.org/1999/xlink">
    <!-- Generator: Sketch 43 (38999) - http://www.bohemiancoding.com/sketch -->
    <title>pause-button</title>
    <desc>Created with Sketch.</desc>
    <defs></defs>
    <g id="Page-1" stroke="none" stroke-width="1" fill="none" fill-rule="evenodd" opacity="0.8">
        <g id="contac-us-copy-3" transform="translate(-313.000000, -533.000000)" fill-rule="nonzero" fill="#030104">
            <g id="pause-button" transform="translate(313.000000, 533.000000)">
                <path d="M25.5462963,0 C22.692,0 20.3796296,0.873714286 20.3796296,3.71428571 L20.3796296,36.2857143 C20.3796296,39.1262857 22.692,40 25.5462963,40 C28.4000185,40 30.712963,39.1262857 30.712963,36.2857143 L30.712963,3.71428571 C30.712963,0.873714286 28.4000185,0 25.5462963,0 Z" id="Shape"></path>
                <path d="M5.4537037,0 C2.59940741,0 0.287037037,0.873714286 0.287037037,3.71428571 L0.287037037,36.2857143 C0.287037037,39.1262857 2.59940741,40 5.4537037,40 C8.30742593,40 10.6203704,39.1262857 10.6203704,36.2857143 L10.6203704,3.71428571 C10.6203704,0.873714286 8.30742593,0 5.4537037,0 Z" id="Shape"></path>
            </g>
        </g>
    </g>
</svg>