<svg xmlns="http://www.w3.org/2000/svg" width="28" height="29" viewBox="0 0 28 29">
  <path fill="#1DA1F3" fill-rule="evenodd" d="M54.8571701,259.464266 C54.1785979,259.767838 53.4643113,259.964267 52.6964532,260.07141 C53.4821685,259.607123 54.0714549,258.857122 54.3571695,257.982121 C53.6250258,258.410693 52.8214534,258.732122 51.9643095,258.892837 C51.2857373,258.160693 50.3035932,257.714264 49.2321634,257.714264 C47.1607324,257.714264 45.4821589,259.392837 45.4821589,261.464268 C45.4821589,261.749983 45.5000161,262.053555 45.5714447,262.321412 C42.446441,262.160698 39.6785806,260.678553 37.8214355,258.392836 C37.5000066,258.946408 37.3035778,259.607123 37.3035778,260.285696 C37.3035778,261.589269 37.9107213,262.732127 38.9285797,263.410699 C38.3035789,263.392842 37.7142925,263.21427 37.1428633,262.946413 L37.1428633,262.982127 C37.1428633,264.803558 38.5178649,266.321417 40.2321527,266.660703 C39.9107237,266.749989 39.6607234,266.80356 39.3214373,266.80356 C39.0892942,266.80356 38.857151,266.767846 38.6250079,266.732132 C39.1071513,268.214276 40.482153,269.303563 42.1250121,269.339278 C40.8392963,270.339279 39.2321515,270.946423 37.4642922,270.946423 C37.1607204,270.946423 36.8571486,270.928565 36.571434,270.892851 C38.2321503,271.946424 40.1964383,272.571424 42.3214409,272.571424 C49.2143062,272.571424 53.000025,266.857132 53.000025,261.89284 C53.000025,261.732126 53.000025,261.571411 52.9821679,261.410697 C53.7143116,260.892839 54.3571695,260.232124 54.8571701,259.464266 Z M59.4286041,255.999976 L59.4286041,273.142854 C59.4286041,275.982143 57.12503,278.285717 54.2857409,278.285717 L37.1428633,278.285717 C34.3035742,278.285717 32,275.982143 32,273.142854 L32,255.999976 C32,253.160687 34.3035742,250.857113 37.1428633,250.857113 L54.2857409,250.857113 C57.12503,250.857113 59.4286041,253.160687 59.4286041,255.999976 Z" transform="translate(-32 -250)"/>
</svg>
