<?xml version="1.0" encoding="utf-8"?>
<!-- Generator: Adobe Illustrator 21.0.2, SVG Export Plug-In . SVG Version: 6.00 Build 0)  -->
<svg version="1.1" id="Layer_1" xmlns="http://www.w3.org/2000/svg" xmlns:xlink="http://www.w3.org/1999/xlink" x="0px" y="0px"
	 viewBox="0 0 20 17" style="enable-background:new 0 0 20 17;" xml:space="preserve">
<style type="text/css">
	.st0{fill:none;stroke:#FFFFFF;stroke-linecap:round;stroke-linejoin:round;}
</style>
<title>Page 1</title>
<desc>Created with Sketch.</desc>
<g id="Symbols">
	<g id="Nav-Mobile" transform="translate(-270.000000, -32.000000)">
		<g id="Nav">
			<g>
				<g id="Group">
					<g id="Page-1" transform="translate(270.000000, 32.000000)">
						<polygon id="Stroke-1" class="st0" points="6.5,10.5 17.5,10.5 19.5,3.5 4.5,3.5 						"/>
						<polyline id="Stroke-3" class="st0" points="6.5,10.5 3.6,0.4 0.6,0.4 						"/>
						<path id="Stroke-5" class="st0" d="M8.5,15c0,0.8-0.7,1.5-1.5,1.5S5.5,15.8,5.5,15s0.7-1.5,1.5-1.5S8.5,14.2,8.5,15z"/>
						<path id="Stroke-7" class="st0" d="M18.5,15c0,0.8-0.7,1.5-1.5,1.5s-1.5-0.7-1.5-1.5s0.7-1.5,1.5-1.5S18.5,14.2,18.5,15z"/>
					</g>
				</g>
			</g>
		</g>
	</g>
</g>
</svg>
