<?xml version="1.0" encoding="UTF-8"?>
<svg width="144px" height="32px" viewBox="0 0 144 32" version="1.1" xmlns="http://www.w3.org/2000/svg" xmlns:xlink="http://www.w3.org/1999/xlink">
    <!-- Generator: Sketch 41.2 (35397) - http://www.bohemiancoding.com/sketch -->
    <title>DS-Logo</title>
    <desc>Created with Sketch.</desc>
    <defs>
        <polygon id="path-1" points="9.06468889 0.147777778 1.03491111 0.147777778 1.03491111 7.80624444 9.06468889 7.80624444 9.06468889 0.147777778"></polygon>
        <polygon id="path-3" points="7.1974 0.147777778 0.0122888889 0.147777778 0.0122888889 7.80686667 7.1974 7.80686667 7.1974 0.147777778"></polygon>
        <polygon id="path-5" points="0 26.8526889 74.8097778 26.8526889 74.8097778 0.556022222 0 0.556022222"></polygon>
    </defs>
    <g id="Symbols" stroke="none" stroke-width="1" fill="none" fill-rule="evenodd">
        <g id="Nav" transform="translate(-40.000000, -24.000000)">
            <g id="DS-Logo">
                <g transform="translate(40.000000, 24.000000)">
                    <g id="DS" fill="#F0D943">
                        <path d="M14.5436882,30.2149579 L4.64108308,30.2149579 L20.0299651,23.522199 L14.5436882,30.2149579 Z M19.6124882,8.34074256 L4.99817026,2.17705026 L14.0605703,2.17705026 L19.6124882,8.34074256 Z M1.64128821,2.54070154 L21.9322421,11.1002913 L21.9322421,20.9044349 L1.64128821,29.7305272 L1.64128821,2.54070154 Z M23.5732677,21.4335015 L23.5732677,10.6027323 C23.5732677,10.5935426 23.5693292,10.5856656 23.5693292,10.5777887 C23.5758933,10.3152246 23.4485497,10.0723528 23.2358728,9.91218872 L15.0359959,0.806465641 C14.8797703,0.634486154 14.6579036,0.536024615 14.4255344,0.536024615 L1.07414974,0.536024615 C0.672426667,0.400804103 0.231318974,0.589850256 0.0645907692,0.986322051 C0.0173292308,1.09922462 0.00157538462,1.21606564 0.00551384615,1.33159385 C0.00420102564,1.33947077 0.000262564103,1.34734769 0.000262564103,1.35653744 L0.000262564103,30.9882092 L0.000262564103,30.9921477 L0.000262564103,31.0354708 C0.000262564103,31.4883938 0.367852308,31.8559836 0.820775385,31.8559836 L14.9322831,31.8559836 C15.1777805,31.8559836 15.4114626,31.7457067 15.5663754,31.5553477 L23.3868472,22.015081 C23.5076267,21.8680451 23.5732677,21.6842503 23.5732677,21.4938913 L23.5732677,21.4361272 L23.5732677,21.4335015 Z" id="Fill-1"></path>
                        <path d="M47.54944,30.2149579 L34.5577682,30.2149579 L31.1116144,26.4274708 L36.1068964,19.4577067 L50.7146503,26.7136656 L47.54944,30.2149579 Z M30.8910605,7.26816821 L51.2161477,17.3637579 L51.2161477,25.1317169 L30.8910605,15.0348144 L30.8910605,7.26816821 Z M34.5643323,2.18886564 L47.5560041,2.18886564 L51.0021579,5.97766564 L45.9819323,12.9316759 L31.3991221,5.68753231 L34.5643323,2.18886564 Z M52.8519221,26.4222195 C52.8506092,26.3985887 52.859799,26.3749579 52.8571733,26.3513272 L52.8571733,16.8556964 C52.8571733,16.5445579 52.6812554,16.2596759 52.4016246,16.1218297 L47.4719836,13.6721067 L52.7219528,6.39776821 C52.9490708,6.08269128 52.92544,5.65208615 52.6641887,5.36589128 L48.5261785,0.816968205 C48.3699528,0.646301538 48.149399,0.54784 47.9183426,0.54784 L34.200681,0.54784 C33.9683118,0.54784 33.7477579,0.646301538 33.5928451,0.818281026 L29.4561477,5.38952205 C29.42464,5.42496821 29.4141374,5.47091692 29.3891938,5.51030154 C29.358999,5.5588759 29.3274913,5.60482462 29.3064862,5.65865026 C29.2841682,5.72166564 29.2762913,5.78336821 29.2684144,5.84900923 C29.2644759,5.88051692 29.2500349,5.90808615 29.2500349,5.94090667 L29.2500349,15.5428759 C29.2500349,15.8553272 29.4259528,16.1388964 29.7055836,16.2780554 L34.6181579,18.7185887 L29.3918195,26.0113067 C29.1673272,26.3263836 29.1922708,26.7543631 29.4522092,27.0418708 L33.5889067,31.5881682 C33.7438195,31.7588349 33.9643733,31.8559836 34.1954297,31.8559836 L47.9130913,31.8559836 C48.1454605,31.8559836 48.3673272,31.7575221 48.52224,31.5855426 L52.6576246,27.0116759 C52.6956964,26.9683528 52.7101374,26.91584 52.7377067,26.8685785 C52.7482092,26.850199 52.7692144,26.8436349 52.7784041,26.8239426 C52.7875938,26.8055631 52.786281,26.7871836 52.7941579,26.7688041 C52.8164759,26.7136656 52.8296041,26.6585272 52.8387938,26.5994503 C52.8492964,26.5390605 52.8545477,26.4812964 52.8519221,26.4222195 L52.8519221,26.4222195 Z" id="Fill-4"></path>
                    </g>
                    <g id="Page-1" transform="translate(69.000000, 5.000000)">
                        <g id="Group-3" transform="translate(0.000000, 0.408244)">
                            <mask id="mask-2" fill="white">
                                <use xlink:href="#path-1"></use>
                            </mask>
                            <g id="Clip-2"></g>
                            <path d="M2.57335556,6.26935556 L5.19135556,6.26935556 C6.53535556,6.26935556 7.5278,5.49935556 7.5278,3.94691111 C7.5278,2.14402222 6.38757778,1.68513333 5.19135556,1.68513333 L2.57335556,1.68513333 L2.57335556,6.26935556 Z M5.19135556,0.146688889 C6.94913333,0.146688889 9.06468889,1.0038 9.06468889,3.85824444 C9.06468889,6.38602222 7.48113333,7.80624444 5.19135556,7.80624444 L1.03491111,7.80624444 L1.03491111,0.146688889 L5.19135556,0.146688889 Z" id="Fill-1" fill="#FEFEFE" mask="url(#mask-2)"></path>
                        </g>
                        <path d="M15.6664667,5.06573333 L18.6235778,5.06573333 L17.1442444,2.04951111 L15.6664667,5.06573333 Z M16.1098,0.556177778 L18.1506889,0.556177778 L21.9073556,8.21417778 L20.1620222,8.21417778 L19.3935778,6.60262222 L14.9120222,6.60262222 L14.1435778,8.21417778 L12.3966889,8.21417778 L16.1098,0.556177778 Z" id="Fill-4" fill="#FEFEFE"></path>
                        <g id="Group-8" transform="translate(24.888889, 0.408244)">
                            <mask id="mask-4" fill="white">
                                <use xlink:href="#path-3"></use>
                            </mask>
                            <g id="Clip-7"></g>
                            <polygon id="Fill-6" fill="#FEFEFE" mask="url(#mask-4)" points="7.1974 0.147311111 7.1974 1.6842 4.37406667 1.6842 4.37406667 7.80686667 2.83562222 7.80686667 2.83562222 1.6842 0.0122888889 1.6842 0.0122888889 0.147311111"></polygon>
                        </g>
                        <path d="M38.3648222,5.06573333 L41.3219333,5.06573333 L39.8426,2.04951111 L38.3648222,5.06573333 Z M38.8081556,0.556177778 L40.8490444,0.556177778 L44.6057111,8.21417778 L42.8603778,8.21417778 L42.0919333,6.60262222 L37.6103778,6.60262222 L36.8419333,8.21417778 L35.0950444,8.21417778 L38.8081556,0.556177778 Z" id="Fill-9" fill="#FEFEFE"></path>
                        <path d="M0.709333333,24.1457111 C2.03933333,25.0043778 3.31177778,25.3139333 4.65733333,25.3139333 C5.42577778,25.3139333 6.72777778,25.1226 6.72777778,24.2639333 C6.72777778,23.6432667 6.048,23.4799333 5.57511111,23.4659333 L3.28222222,23.3928222 C1.40466667,23.3477111 0.486888889,22.2526 0.486888889,21.0703778 C0.486888889,19.9317111 1.33,18.7199333 4.08022222,18.7199333 C6.09155556,18.7199333 7.31888889,19.4883778 7.77777778,19.7248222 L7.084,21.0843778 C6.47577778,20.7748222 5.36666667,20.2568222 3.84533333,20.2568222 C3.03022222,20.2568222 2.02533333,20.4341556 2.02533333,21.1154889 C2.02533333,21.7066 2.86844444,21.8543778 3.38644444,21.8543778 L5.38222222,21.9274889 C7.14311111,21.9726 8.26466667,22.7270444 8.26466667,24.3386 C8.26466667,25.7137111 7.18666667,26.8523778 4.65733333,26.8523778 C2.58688889,26.8523778 1.06555556,26.3343778 0,25.5223778 L0.709333333,24.1457111 Z" id="Fill-11" fill="#FEFEFE"></path>
                        <polygon id="Fill-13" fill="#FEFEFE" points="14.5133333 18.9563778 14.5133333 22.2837111 17.8111111 18.9563778 19.7773333 18.9563778 17.0862222 21.6770444 20.2066667 26.6159333 18.3586667 26.6159333 15.9631111 22.8297111 14.5133333 24.2483778 14.5133333 26.6159333 12.9748889 26.6159333 12.9748889 18.9563778"></polygon>
                        <polygon id="Fill-15" fill="#FEFEFE" points="31.3783556 18.9563778 31.3783556 20.4932667 26.1128 20.4932667 26.1128 21.8839333 28.8925778 21.8839333 28.8925778 23.4208222 26.1128 23.4208222 26.1128 25.0790444 31.5556889 25.0790444 31.5556889 26.6159333 24.5759111 26.6159333 24.5759111 18.9563778"></polygon>
                        <path d="M38.2462889,22.3120222 L41.3076222,22.3120222 C41.8987333,22.3120222 42.5349556,22.2389111 42.5349556,21.3802444 C42.5349556,20.5682444 41.8536222,20.4935778 41.3076222,20.4935778 L38.2462889,20.4935778 L38.2462889,22.3120222 Z M41.3076222,18.9566889 C42.8009556,18.9566889 44.0718444,19.6069111 44.0718444,21.3802444 C44.0718444,23.0960222 42.8896222,23.8504667 41.3076222,23.8504667 L38.2462889,23.8504667 L38.2462889,26.6162444 L36.7094,26.6162444 L36.7094,18.9566889 L41.3076222,18.9566889 Z" id="Fill-17" fill="#FEFEFE"></path>
                        <polygon id="Fill-19" fill="#FEFEFE" points="54.7998889 18.9563778 54.7998889 20.4932667 51.9765556 20.4932667 51.9765556 26.6159333 50.4381111 26.6159333 50.4381111 20.4932667 47.6147778 20.4932667 47.6147778 18.9563778"></polygon>
                        <mask id="mask-6" fill="white">
                            <use xlink:href="#path-5"></use>
                        </mask>
                        <g id="Clip-22"></g>
                        <polygon id="Fill-21" fill="#FEFEFE" mask="url(#mask-6)" points="59.5995556 26.6162444 61.138 26.6162444 61.138 18.9566889 59.5995556 18.9566889"></polygon>
                        <path d="M73.7748667,21.5144889 C73.2724222,21.0991556 72.2224222,20.2560444 70.7275333,20.2560444 C68.8344222,20.2560444 67.7253111,21.5876 67.7253111,22.8304889 C67.7253111,23.9691556 68.7022,25.3131556 70.9048667,25.3131556 C72.2659778,25.3131556 73.4793111,24.7236 74.1155333,24.2351556 L74.8093111,25.6538222 C73.7313111,26.4533778 72.0730889,26.8531556 70.8908667,26.8531556 C68.3179778,26.8531556 66.1884222,25.4469333 66.1884222,22.7853778 C66.1884222,20.0787111 68.6726444,18.7191556 70.8022,18.7191556 C72.7839778,18.7191556 73.8635333,19.5918222 74.6770889,20.1689333 L73.7748667,21.5144889 Z" id="Fill-23" fill="#FEFEFE" mask="url(#mask-6)"></path>
                    </g>
                </g>
            </g>
        </g>
    </g>
</svg>