<?xml version="1.0" encoding="UTF-8"?>
<svg width="53px" height="32px" viewBox="0 0 53 32" version="1.1" xmlns="http://www.w3.org/2000/svg" xmlns:xlink="http://www.w3.org/1999/xlink">
    <!-- Generator: Sketch 42 (36781) - http://www.bohemiancoding.com/sketch -->
    <title>DS-Logo</title>
    <desc>Created with Sketch.</desc>
    <defs></defs>
    <g id="Page-1" stroke="none" stroke-width="1" fill="none" fill-rule="evenodd">
        <g id="Menu-Mobile" transform="translate(-134.000000, -24.000000)" fill="#F0D943">
            <g id="Nav-Mobile">
                <g id="Nav">
                    <g id="DS-Logo" transform="translate(134.000000, 24.000000)">
                        <g id="DS">
                            <path d="M14.5436882,30.2149579 L4.64108308,30.2149579 L20.0299651,23.522199 L14.5436882,30.2149579 Z M19.6124882,8.34074256 L4.99817026,2.17705026 L14.0605703,2.17705026 L19.6124882,8.34074256 Z M1.64128821,2.54070154 L21.9322421,11.1002913 L21.9322421,20.9044349 L1.64128821,29.7305272 L1.64128821,2.54070154 Z M23.5732677,21.4335015 L23.5732677,10.6027323 C23.5732677,10.5935426 23.5693292,10.5856656 23.5693292,10.5777887 C23.5758933,10.3152246 23.4485497,10.0723528 23.2358728,9.91218872 L15.0359959,0.806465641 C14.8797703,0.634486154 14.6579036,0.536024615 14.4255344,0.536024615 L1.07414974,0.536024615 C0.672426667,0.400804103 0.231318974,0.589850256 0.0645907692,0.986322051 C0.0173292308,1.09922462 0.00157538462,1.21606564 0.00551384615,1.33159385 C0.00420102564,1.33947077 0.000262564103,1.34734769 0.000262564103,1.35653744 L0.000262564103,30.9882092 L0.000262564103,30.9921477 L0.000262564103,31.0354708 C0.000262564103,31.4883938 0.367852308,31.8559836 0.820775385,31.8559836 L14.9322831,31.8559836 C15.1777805,31.8559836 15.4114626,31.7457067 15.5663754,31.5553477 L23.3868472,22.015081 C23.5076267,21.8680451 23.5732677,21.6842503 23.5732677,21.4938913 L23.5732677,21.4361272 L23.5732677,21.4335015 Z" id="Fill-1"></path>
                            <path d="M47.54944,30.2149579 L34.5577682,30.2149579 L31.1116144,26.4274708 L36.1068964,19.4577067 L50.7146503,26.7136656 L47.54944,30.2149579 Z M30.8910605,7.26816821 L51.2161477,17.3637579 L51.2161477,25.1317169 L30.8910605,15.0348144 L30.8910605,7.26816821 Z M34.5643323,2.18886564 L47.5560041,2.18886564 L51.0021579,5.97766564 L45.9819323,12.9316759 L31.3991221,5.68753231 L34.5643323,2.18886564 Z M52.8519221,26.4222195 C52.8506092,26.3985887 52.859799,26.3749579 52.8571733,26.3513272 L52.8571733,16.8556964 C52.8571733,16.5445579 52.6812554,16.2596759 52.4016246,16.1218297 L47.4719836,13.6721067 L52.7219528,6.39776821 C52.9490708,6.08269128 52.92544,5.65208615 52.6641887,5.36589128 L48.5261785,0.816968205 C48.3699528,0.646301538 48.149399,0.54784 47.9183426,0.54784 L34.200681,0.54784 C33.9683118,0.54784 33.7477579,0.646301538 33.5928451,0.818281026 L29.4561477,5.38952205 C29.42464,5.42496821 29.4141374,5.47091692 29.3891938,5.51030154 C29.358999,5.5588759 29.3274913,5.60482462 29.3064862,5.65865026 C29.2841682,5.72166564 29.2762913,5.78336821 29.2684144,5.84900923 C29.2644759,5.88051692 29.2500349,5.90808615 29.2500349,5.94090667 L29.2500349,15.5428759 C29.2500349,15.8553272 29.4259528,16.1388964 29.7055836,16.2780554 L34.6181579,18.7185887 L29.3918195,26.0113067 C29.1673272,26.3263836 29.1922708,26.7543631 29.4522092,27.0418708 L33.5889067,31.5881682 C33.7438195,31.7588349 33.9643733,31.8559836 34.1954297,31.8559836 L47.9130913,31.8559836 C48.1454605,31.8559836 48.3673272,31.7575221 48.52224,31.5855426 L52.6576246,27.0116759 C52.6956964,26.9683528 52.7101374,26.91584 52.7377067,26.8685785 C52.7482092,26.850199 52.7692144,26.8436349 52.7784041,26.8239426 C52.7875938,26.8055631 52.786281,26.7871836 52.7941579,26.7688041 C52.8164759,26.7136656 52.8296041,26.6585272 52.8387938,26.5994503 C52.8492964,26.5390605 52.8545477,26.4812964 52.8519221,26.4222195 L52.8519221,26.4222195 Z" id="Fill-4"></path>
                        </g>
                    </g>
                </g>
            </g>
        </g>
    </g>
</svg>